<svg width="50" height="50" viewBox="0 0 50 50" fill="none" xmlns="http://www.w3.org/2000/svg">
<path d="M16.6667 37.4999L20.8334 33.3333H25.0001L27.8334 30.4999C30.7296 31.5089 33.8825 31.5049 36.7761 30.4886C39.6697 29.4722 42.1327 27.5038 43.7618 24.9053C45.3909 22.3069 46.0897 19.2324 45.7439 16.185C45.398 13.1377 44.028 10.298 41.858 8.1307C39.688 5.96343 36.8466 4.59695 33.7988 4.25491C30.751 3.91287 27.6774 4.61554 25.081 6.24791C22.4846 7.88028 20.5192 10.3457 19.5065 13.2405C18.4938 16.1354 18.4937 19.2883 19.5063 22.1833L4.16675 37.4999V45.8333H12.5001L16.6667 41.6666V37.4999Z" stroke="#B5B5B5" stroke-width="4" stroke-linecap="round" stroke-linejoin="round"/>
<path d="M34 20C36.2091 20 38 18.2091 38 16C38 13.7909 36.2091 12 34 12C31.7909 12 30 13.7909 30 16C30 18.2091 31.7909 20 34 20Z" stroke="#B5B5B5" stroke-width="3" stroke-linecap="round" stroke-linejoin="round"/>
</svg>
