<svg width="1130" height="209" viewBox="0 0 1130 209" fill="none" xmlns="http://www.w3.org/2000/svg">
<path d="M222.482 36.9091H250.926L280.969 110.205H282.247L312.29 36.9091H340.734V146H318.362V74.995H317.457L289.225 145.467H273.991L245.759 74.7287H244.854V146H222.482V36.9091ZM396.279 147.598C388.004 147.598 380.849 145.84 374.812 142.325C368.811 138.773 364.176 133.837 360.909 127.516C357.642 121.16 356.009 113.791 356.009 105.411C356.009 96.9588 357.642 89.5724 360.909 83.2514C364.176 76.8949 368.811 71.9588 374.812 68.4432C380.849 64.892 388.004 63.1165 396.279 63.1165C404.553 63.1165 411.691 64.892 417.692 68.4432C423.729 71.9588 428.381 76.8949 431.648 83.2514C434.915 89.5724 436.548 96.9588 436.548 105.411C436.548 113.791 434.915 121.16 431.648 127.516C428.381 133.837 423.729 138.773 417.692 142.325C411.691 145.84 404.553 147.598 396.279 147.598ZM396.385 130.02C400.149 130.02 403.292 128.955 405.813 126.824C408.335 124.658 410.235 121.71 411.513 117.982C412.827 114.253 413.484 110.009 413.484 105.251C413.484 100.492 412.827 96.2486 411.513 92.5199C410.235 88.7912 408.335 85.8437 405.813 83.6776C403.292 81.5114 400.149 80.4283 396.385 80.4283C392.585 80.4283 389.389 81.5114 386.797 83.6776C384.24 85.8437 382.305 88.7912 380.991 92.5199C379.713 96.2486 379.073 100.492 379.073 105.251C379.073 110.009 379.713 114.253 380.991 117.982C382.305 121.71 384.24 124.658 386.797 126.824C389.389 128.955 392.585 130.02 396.385 130.02ZM473.995 98.6989V146H451.303V64.1818H472.93V78.6172H473.889C475.7 73.8587 478.736 70.0945 482.997 67.3246C487.259 64.5192 492.426 63.1165 498.498 63.1165C504.18 63.1165 509.134 64.3594 513.36 66.8452C517.585 69.331 520.87 72.8821 523.214 77.4986C525.558 82.0795 526.73 87.5483 526.73 93.9048V146H504.038V97.9531C504.073 92.946 502.795 89.0398 500.203 86.2344C497.61 83.3935 494.041 81.973 489.496 81.973C486.442 81.973 483.743 82.63 481.399 83.9439C479.091 85.2578 477.28 87.1754 475.966 89.6967C474.688 92.1825 474.031 95.1832 473.995 98.6989ZM581.901 147.598C573.485 147.598 566.24 145.893 560.168 142.484C554.131 139.04 549.479 134.175 546.212 127.889C542.945 121.568 541.311 114.093 541.311 105.464C541.311 97.0476 542.945 89.6612 546.212 83.3047C549.479 76.9482 554.078 71.9943 560.008 68.4432C565.974 64.892 572.97 63.1165 580.995 63.1165C586.393 63.1165 591.418 63.9865 596.07 65.7266C600.757 67.4311 604.841 70.0057 608.321 73.4503C611.837 76.8949 614.571 81.2273 616.525 86.4474C618.478 91.6321 619.454 97.7045 619.454 104.665V110.897H550.367V96.8345H598.094C598.094 93.5675 597.384 90.6733 595.963 88.152C594.543 85.6307 592.572 83.6598 590.051 82.2393C587.565 80.7834 584.671 80.0554 581.368 80.0554C577.924 80.0554 574.87 80.8544 572.206 82.4524C569.578 84.0149 567.519 86.1278 566.027 88.7912C564.536 91.419 563.772 94.3487 563.737 97.5803V110.95C563.737 114.999 564.483 118.496 565.974 121.444C567.501 124.391 569.65 126.664 572.419 128.262C575.189 129.86 578.474 130.659 582.274 130.659C584.795 130.659 587.103 130.304 589.199 129.594C591.294 128.884 593.087 127.818 594.578 126.398C596.07 124.977 597.206 123.237 597.988 121.178L618.975 122.562C617.909 127.605 615.725 132.009 612.423 135.773C609.156 139.501 604.93 142.413 599.745 144.509C594.596 146.568 588.648 147.598 581.901 147.598ZM646.074 176.682C643.198 176.682 640.499 176.451 637.978 175.989C635.492 175.563 633.432 175.013 631.799 174.338L636.912 157.399C639.576 158.216 641.973 158.66 644.104 158.731C646.27 158.802 648.134 158.305 649.697 157.239C651.295 156.174 652.591 154.363 653.585 151.806L654.917 148.344L625.567 64.1818H649.43L666.369 124.267H667.221L684.32 64.1818H708.344L676.543 154.842C675.016 159.246 672.939 163.081 670.311 166.348C667.719 169.651 664.434 172.19 660.456 173.965C656.479 175.776 651.685 176.682 646.074 176.682ZM779.562 68.2834C779.135 63.9865 777.307 60.6484 774.075 58.2692C770.844 55.8899 766.458 54.7003 760.918 54.7003C757.154 54.7003 753.976 55.233 751.383 56.2983C748.791 57.3281 746.802 58.7663 745.417 60.6129C744.068 62.4595 743.393 64.5547 743.393 66.8984C743.322 68.8516 743.731 70.5561 744.618 72.0121C745.542 73.468 746.802 74.7287 748.4 75.794C749.998 76.8239 751.845 77.7294 753.94 78.5107C756.035 79.2564 758.273 79.8956 760.652 80.4283L770.453 82.772C775.211 83.8374 779.579 85.2578 783.557 87.0334C787.534 88.8089 790.979 90.9929 793.89 93.5852C796.802 96.1776 799.057 99.2315 800.655 102.747C802.289 106.263 803.123 110.293 803.159 114.839C803.123 121.515 801.419 127.303 798.045 132.204C794.707 137.069 789.878 140.851 783.557 143.55C777.271 146.213 769.689 147.545 760.812 147.545C752.005 147.545 744.334 146.195 737.8 143.496C731.302 140.798 726.224 136.803 722.566 131.511C718.944 126.185 717.044 119.597 716.866 111.749H739.185C739.434 115.407 740.481 118.461 742.328 120.911C744.21 123.326 746.714 125.155 749.839 126.398C752.999 127.605 756.568 128.209 760.545 128.209C764.452 128.209 767.843 127.641 770.719 126.504C773.631 125.368 775.886 123.788 777.484 121.763C779.082 119.739 779.881 117.413 779.881 114.786C779.881 112.335 779.153 110.276 777.697 108.607C776.277 106.937 774.182 105.517 771.412 104.345C768.677 103.173 765.322 102.108 761.344 101.149L749.466 98.1662C740.268 95.929 733.006 92.4311 727.68 87.6726C722.353 82.9141 719.707 76.5043 719.743 68.4432C719.707 61.8381 721.465 56.0675 725.016 51.1314C728.603 46.1953 733.521 42.3423 739.771 39.5724C746.021 36.8026 753.123 35.4176 761.078 35.4176C769.175 35.4176 776.241 36.8026 782.278 39.5724C788.351 42.3423 793.074 46.1953 796.447 51.1314C799.821 56.0675 801.561 61.7848 801.667 68.2834H779.562ZM841.578 147.545C836.358 147.545 831.706 146.639 827.622 144.828C823.538 142.982 820.306 140.265 817.927 136.678C815.583 133.056 814.412 128.546 814.412 123.148C814.412 118.603 815.246 114.786 816.915 111.696C818.584 108.607 820.857 106.121 823.733 104.239C826.61 102.357 829.877 100.936 833.534 99.9773C837.228 99.0185 841.098 98.3438 845.147 97.9531C849.905 97.456 853.74 96.9943 856.652 96.5682C859.564 96.1065 861.677 95.4318 862.991 94.544C864.305 93.6562 864.962 92.3423 864.962 90.6023V90.2827C864.962 86.9091 863.897 84.299 861.766 82.4524C859.671 80.6058 856.688 79.6825 852.817 79.6825C848.733 79.6825 845.484 80.5881 843.069 82.3991C840.654 84.1747 839.056 86.4119 838.275 89.1108L817.288 87.4062C818.353 82.4347 820.449 78.1378 823.574 74.5156C826.699 70.858 830.729 68.0526 835.665 66.0994C840.637 64.1108 846.39 63.1165 852.924 63.1165C857.469 63.1165 861.819 63.6491 865.974 64.7145C870.164 65.7798 873.875 67.4311 877.107 69.6683C880.374 71.9055 882.949 74.782 884.831 78.2976C886.713 81.7777 887.654 85.9503 887.654 90.8153V146H866.134V134.654H865.495C864.181 137.211 862.423 139.466 860.221 141.419C858.02 143.337 855.374 144.846 852.284 145.947C849.195 147.012 845.626 147.545 841.578 147.545ZM848.076 131.884C851.414 131.884 854.362 131.227 856.919 129.913C859.475 128.564 861.482 126.753 862.938 124.48C864.394 122.207 865.122 119.633 865.122 116.756V108.074C864.412 108.536 863.435 108.962 862.192 109.352C860.985 109.707 859.618 110.045 858.091 110.364C856.564 110.648 855.037 110.915 853.51 111.163C851.983 111.376 850.598 111.572 849.355 111.749C846.691 112.14 844.365 112.761 842.377 113.614C840.388 114.466 838.843 115.62 837.743 117.076C836.642 118.496 836.091 120.272 836.091 122.403C836.091 125.492 837.21 127.854 839.447 129.487C841.72 131.085 844.596 131.884 848.076 131.884ZM978.607 64.1818L950.003 146H924.435L895.83 64.1818H919.8L936.793 122.722H937.645L954.584 64.1818H978.607ZM1024.87 147.598C1016.45 147.598 1009.21 145.893 1003.14 142.484C997.1 139.04 992.448 134.175 989.181 127.889C985.914 121.568 984.28 114.093 984.28 105.464C984.28 97.0476 985.914 89.6612 989.181 83.3047C992.448 76.9482 997.047 71.9943 1002.98 68.4432C1008.94 64.892 1015.94 63.1165 1023.96 63.1165C1029.36 63.1165 1034.39 63.9865 1039.04 65.7266C1043.73 67.4311 1047.81 70.0057 1051.29 73.4503C1054.81 76.8949 1057.54 81.2273 1059.49 86.4474C1061.45 91.6321 1062.42 97.7045 1062.42 104.665V110.897H993.336V96.8345H1041.06C1041.06 93.5675 1040.35 90.6733 1038.93 88.152C1037.51 85.6307 1035.54 83.6598 1033.02 82.2393C1030.53 80.7834 1027.64 80.0554 1024.34 80.0554C1020.89 80.0554 1017.84 80.8544 1015.18 82.4524C1012.55 84.0149 1010.49 86.1278 1009 88.7912C1007.5 91.419 1006.74 94.3487 1006.71 97.5803V110.95C1006.71 114.999 1007.45 118.496 1008.94 121.444C1010.47 124.391 1012.62 126.664 1015.39 128.262C1018.16 129.86 1021.44 130.659 1025.24 130.659C1027.76 130.659 1030.07 130.304 1032.17 129.594C1034.26 128.884 1036.06 127.818 1037.55 126.398C1039.04 124.977 1040.18 123.237 1040.96 121.178L1061.94 122.562C1060.88 127.605 1058.69 132.009 1055.39 135.773C1052.12 139.501 1047.9 142.413 1042.71 144.509C1037.56 146.568 1031.62 147.598 1024.87 147.598ZM1077.23 146V64.1818H1099.23V78.4574H1100.08C1101.57 73.3793 1104.08 69.544 1107.59 66.9517C1111.11 64.3239 1115.16 63.0099 1119.74 63.0099C1120.87 63.0099 1122.1 63.081 1123.41 63.223C1124.73 63.3651 1125.88 63.5604 1126.88 63.8089V83.9439C1125.81 83.6243 1124.34 83.3402 1122.45 83.0916C1120.57 82.843 1118.85 82.7188 1117.29 82.7188C1113.95 82.7188 1110.97 83.4467 1108.34 84.9027C1105.75 86.3232 1103.69 88.3118 1102.16 90.8686C1100.67 93.4254 1099.92 96.3729 1099.92 99.7109V146H1077.23Z" fill="white"/>
<path d="M1127 199H226" stroke="white" stroke-width="20"/>
<g clip-path="url(#clip0_403_42)">
<path d="M85 41H106.5L32 169.5H132.5L143 188H0L85 41Z" fill="white"/>
<path d="M192.5 188L108.5 42L36.5 166.5H59L108 80.5L182 207.5L192.5 188Z" fill="white"/>
<path d="M147.5 190.5H0L10 208.5H179.5L108 85.5L97.5 104L147.5 190.5Z" fill="white"/>
<path d="M85 41H106.5L32 169.5H132.5L143 188H0L85 41Z" stroke="white"/>
<path d="M192.5 188L108.5 42L36.5 166.5H59L108 80.5L182 207.5L192.5 188Z" stroke="white"/>
<path d="M147.5 190.5H0L10 208.5H179.5L108 85.5L97.5 104L147.5 190.5Z" stroke="white"/>
</g>
<defs>
<clipPath id="clip0_403_42">
<rect width="192.5" height="167.5" fill="white" transform="translate(0 41)"/>
</clipPath>
</defs>
</svg>
